<svg id="Capa_1" enable-background="new 0 0 512.006 512.006" height="512" viewBox="0 0 512.006 512.006" width="512" xmlns="http://www.w3.org/2000/svg"><g><path d="m256.002 464.936c-55.427 0-107.639-21.478-147.018-60.478-2.943-2.914-7.691-2.892-10.606.052-2.915 2.943-2.892 7.691.052 10.606 42.206 41.799 98.167 64.819 157.573 64.819 59.815 0 116.051-23.293 158.346-65.589 42.296-42.295 65.589-98.531 65.589-158.346 0-51.218-17.738-101.289-49.945-140.988-2.61-3.217-7.333-3.709-10.549-1.099-3.217 2.609-3.709 7.333-1.099 10.549 30.046 37.036 46.594 83.75 46.594 131.538-.001 115.208-93.729 208.936-208.937 208.936z"/><path d="m470.586 116.342c-26.395-40.477-63.472-72.568-107.22-92.807-3.76-1.738-8.217-.101-9.956 3.658s-.101 8.217 3.658 9.956c41.189 19.054 76.099 49.271 100.954 87.386 25.501 39.104 38.98 84.564 38.98 131.464 0 34.004-6.938 66.872-20.62 97.69-13.22 29.776-32.052 56.196-55.973 78.524-23.875 22.285-51.462 39.218-81.994 50.328-31.779 11.563-65.263 16.229-99.523 13.866-57.458-3.963-111.841-28.883-153.128-70.171-41.288-41.288-66.208-95.67-70.17-153.128-5.143-74.562 23.589-145.972 78.827-195.92 3.072-2.778 3.311-7.521.533-10.593-2.778-3.071-7.52-3.311-10.593-.533-58.674 53.055-89.193 128.896-83.732 208.079 4.212 61.072 30.68 118.854 74.529 162.703s101.631 70.317 162.703 74.53c6.119.422 12.211.632 18.28.632 29.997 0 59.323-5.149 87.404-15.367 32.438-11.803 61.743-29.79 87.101-53.458 25.404-23.712 45.405-51.773 59.448-83.403 14.538-32.747 21.91-67.663 21.91-103.777-.002-49.818-14.323-98.111-41.418-139.659z"/><path d="m120.53 56.651c40.016-27.248 86.862-41.651 135.472-41.651 11.557 0 22.602 4.95 30.302 13.58 7.806 8.748 11.364 20.051 10.019 31.829-2.068 18.109-16.662 33.001-34.702 35.408-6.528.871-12.906.241-18.957-1.872-41.867-14.622-84.539-7.629-114.149 18.704-40.917 36.39-64.384 88.639-64.384 143.351 0 54.484 23.293 106.594 63.906 142.969 19.855 17.783 42.695 31.007 67.885 39.306 19.408 6.394 39.498 9.606 59.964 9.606 7.267 0 14.583-.405 21.931-1.217 43.15-4.766 83.932-24.677 114.831-56.064 30.887-31.375 50.177-72.463 54.318-115.694 1.961-20.477.736-40.869-3.64-60.61-.896-4.044-4.904-6.596-8.945-5.699-4.044.896-6.596 4.901-5.699 8.945 4.036 18.205 5.164 37.024 3.353 55.935-3.813 39.814-21.597 77.672-50.075 106.601-28.487 28.938-66.057 47.291-105.789 51.679-25.89 2.858-51.312.26-75.555-7.727-23.214-7.647-44.266-19.837-62.57-36.232-37.442-33.536-58.915-81.573-58.915-131.798 0-50.433 21.633-98.597 59.353-132.143 25.484-22.665 62.582-28.553 99.235-15.751 8.294 2.897 17.003 3.765 25.887 2.579 24.756-3.304 44.784-23.732 47.621-48.574 1.81-15.849-3.194-31.71-13.729-43.518-10.545-11.816-25.669-18.593-41.496-18.593-51.634 0-101.399 15.302-143.915 44.253-3.424 2.331-4.31 6.997-1.978 10.42s6.997 4.31 10.421 1.978z"/></g></svg>